<?xml version="1.0" encoding="UTF-8" standalone="no"?>
<!-- Created with Inkscape (http://www.inkscape.org/) -->

<svg
   width="252.0701mm"
   height="246.32677mm"
   viewBox="0 0 126.03505 123.16338"
   version="1.1"
   id="svg1"
   inkscape:version="1.3.2 (091e20e, 2023-11-25, custom)"
   sodipodi:docname="portal.svg"
   xml:space="preserve"
   inkscape:export-filename="..\img\portal.png"
   inkscape:export-xdpi="96"
   inkscape:export-ydpi="96"
   xmlns:inkscape="http://www.inkscape.org/namespaces/inkscape"
   xmlns:sodipodi="http://sodipodi.sourceforge.net/DTD/sodipodi-0.dtd"
   xmlns="http://www.w3.org/2000/svg"
   xmlns:svg="http://www.w3.org/2000/svg"><sodipodi:namedview
     id="namedview1"
     pagecolor="#ffffff"
     bordercolor="#000000"
     borderopacity="0.25"
     inkscape:showpageshadow="2"
     inkscape:pageopacity="0.0"
     inkscape:pagecheckerboard="0"
     inkscape:deskcolor="#d1d1d1"
     inkscape:document-units="px"
     inkscape:zoom="0.73139029"
     inkscape:cx="238.58671"
     inkscape:cy="436.83927"
     inkscape:window-width="1920"
     inkscape:window-height="1017"
     inkscape:window-x="-8"
     inkscape:window-y="-8"
     inkscape:window-maximized="1"
     inkscape:current-layer="layer1"
     showgrid="false" /><defs
     id="defs1" /><g
     inkscape:label="Baselayer"
     inkscape:groupmode="layer"
     id="layer1"
     transform="translate(-41.526606,-61.743266)"><path
       style="fill:#8b0000"
       d="m 99.16395,184.7846 c -14.399059,-1.28654 -27.337818,-6.97675 -38.05032,-16.73377 -1.672852,-1.52364 -5.180221,-5.34583 -6.65487,-7.2522 -3.375701,-4.36398 -7.192062,-11.06177 -8.901525,-15.62236 -4.587918,-12.23987 -5.271595,-25.11264 -1.98719,-37.41626 2.82866,-10.596365 8.306758,-19.959586 16.247029,-27.769573 3.017832,-2.968315 5.02893,-4.652441 8.148622,-6.823789 14.252252,-9.919762 31.93309,-13.580159 49.216084,-10.189022 12.82427,2.516281 24.95693,9.248957 33.87461,18.797764 8.30076,8.888215 13.8138,20.02904 15.70842,31.74375 2.50741,15.50376 -0.94538,31.06332 -9.75481,43.95872 -10.25436,15.01053 -26.01373,24.57484 -44.53548,27.02843 -2.7896,0.36954 -10.48799,0.53051 -13.31057,0.27831 z m 23.99454,-24.10912 c 3.05473,-0.60866 6.04473,-1.83869 6.83903,-2.81344 0.42109,-0.51676 0.43089,-0.63269 0.32828,-3.88195 -0.11646,-3.68812 -0.43293,-5.79929 -1.3108,-8.74448 -0.71574,-2.40126 -1.45802,-3.96758 -2.12235,-4.47852 -0.43415,-0.3339 -0.77932,-0.38627 -2.46994,-0.37479 -5.96218,0.0405 -9.12332,-0.0863 -9.31128,-0.3735 -0.10334,-0.15789 -0.73725,-1.9187 -1.40869,-3.91291 -0.67144,-1.99421 -1.3998,-3.88895 -1.61858,-4.21053 -0.21878,-0.32158 -0.72177,-0.74009 -1.11775,-0.93002 -0.61283,-0.29393 -0.84373,-0.31274 -1.55154,-0.12639 -0.46071,0.1213 -1.12056,0.5015 -1.47956,0.85251 -0.87814,0.85859 -0.8489,1.47048 0.21833,4.5685 1.17206,3.40234 2.37877,7.55365 2.72162,9.36289 l 0.2822,1.48921 -0.41782,-0.12966 c -0.2298,-0.0713 -1.07076,-0.56472 -1.8688,-1.09646 -1.2348,-0.82276 -1.61662,-0.97851 -2.56279,-1.04543 -1.02612,-0.0726 -1.16683,-0.0314 -1.82555,0.53409 -0.41391,0.35532 -0.81085,0.92965 -0.94492,1.36716 -0.33178,1.08276 0.0921,1.82479 1.73351,3.03448 2.89656,2.13473 5.57153,5.06244 8.15483,8.92535 1.46971,2.19771 1.56917,2.29956 2.37625,2.43323 1.13516,0.18801 5.49378,-0.0782 7.35632,-0.44934 z m -50.227433,-8.11713 c 0.567303,-0.23176 0.714401,-0.42861 0.96536,-1.29187 0.16284,-0.56014 0.393454,-2.13806 0.512476,-3.50648 0.504462,-5.79991 1.861362,-9.45342 4.571428,-12.30874 0.975392,-1.02768 1.490109,-1.91936 1.490109,-2.58142 0,-0.83459 -0.423047,-1.67099 -0.99022,-1.95776 -0.826447,-0.41786 -2.453005,-0.36092 -3.237846,0.11334 -0.955834,0.57759 -2.77183,2.58854 -4.081342,4.51948 -2.166124,3.19405 -3.023636,3.76239 -4.88043,3.23462 -0.73596,-0.20919 -1.242914,-0.50674 -1.6659,-0.97777 -0.334406,-0.37239 -0.626286,-0.69561 -0.648622,-0.71826 -0.02234,-0.0227 -0.0884,-2.27117 -0.146808,-4.9967 -0.09497,-4.4314 -0.142204,-4.97768 -0.44665,-5.16519 -0.497993,-0.30671 -1.108709,0.12395 -2.369507,1.67091 -1.341396,1.64586 -2.165114,3.23546 -2.692627,5.1962 -0.354912,1.31919 -0.413596,2.10061 -0.424003,5.64593 -0.01173,3.9943 0.489622,11.06767 0.850509,11.99956 0.42394,1.09471 1.87047,1.34113 8.065331,1.37395 3.46557,0.0183 4.60862,-0.0373 5.128742,-0.2498 z m 27.363773,-4.90555 c 0.86027,-0.23358 2.02384,-1.16679 2.20768,-1.77062 0.0701,-0.23035 0.30836,-0.78131 0.52939,-1.22434 0.73919,-1.48162 1.50775,-1.39559 -12.455703,-1.39438 -8.125845,7e-4 -12.613508,0.0708 -13.106494,0.20461 -0.919741,0.24971 -1.305634,1.00731 -1.305634,2.5633 0,0.80359 0.09436,1.15103 0.391488,1.44155 0.382474,0.37396 0.651725,0.38275 11.695683,0.38171 7.284167,-6.9e-4 11.567141,-0.0725 12.04359,-0.20183 z m 38.85497,-0.2819 c 1.15669,-0.33748 2.27304,-1.22662 2.83876,-2.26099 l 0.43474,-0.79489 V 120.67866 97.042305 l -0.42249,-0.76555 c -0.56471,-1.02323 -1.3313,-1.705923 -2.51366,-2.238539 l -0.97872,-0.440883 h -34.0594 -34.059399 l -0.880846,0.400351 c -1.201462,0.546073 -2.086926,1.313501 -2.602187,2.255301 l -0.43184,0.78932 -0.05254,19.696835 -0.05253,19.69683 0.429206,0.44671 c 0.31559,0.32845 0.643653,0.4467 1.239311,0.4467 0.947941,0 1.2647,-0.2815 2.803791,-2.49168 0.551157,-0.79148 1.405243,-1.90084 1.89797,-2.46523 1.707592,-1.95598 1.552488,-0.27394 1.662409,-18.02814 0.08056,-13.01204 0.145388,-15.863975 0.366519,-16.124395 0.247648,-0.29165 2.519896,-0.31615 29.067936,-0.31345 15.8396,0.002 28.8962,0.0662 29.01466,0.14354 0.65422,0.42712 0.66547,0.81047 0.66547,22.690545 0,24.86572 0.19045,22.5071 -1.83066,22.67097 -0.612,0.0496 -1.15572,0.15824 -1.20826,0.24137 -0.19311,0.3055 0.35808,3.08399 0.6917,3.48683 0.23673,0.28584 0.66806,0.45607 1.39395,0.55013 1.49481,0.19371 5.49251,10e-5 6.58611,-0.31897 z m -1.71796,-25.59817 c -0.70399,-0.34782 -0.80631,-1.68787 -0.16255,-2.12875 0.95676,-0.65523 2.11999,-0.14156 2.11999,0.93617 0,0.60289 -0.40333,1.24684 -0.78095,1.24684 -0.0912,0 -0.28306,0.0422 -0.42644,0.0938 -0.14338,0.0516 -0.4809,-0.015 -0.75005,-0.14802 z m -41.938691,7.29684 c 0.812015,-0.24344 1.224005,-0.82381 1.224005,-1.72425 0,-1.07821 -0.622414,-1.65497 -2.065662,-1.91413 -2.737655,-0.4916 -4.589623,0.29122 -4.589623,1.94001 0,0.98582 0.617769,1.65232 1.690887,1.82427 0.41575,0.0666 0.888036,0.14938 1.049525,0.18391 0.419325,0.0897 1.94385,-0.0858 2.690868,-0.30981 z m 11.099601,-0.0494 c 0.76495,-0.3125 1.08605,-0.79654 1.08605,-1.63714 0,-1.42066 -1.05097,-2.01939 -3.52339,-2.00725 -2.08545,0.0102 -2.82131,0.33821 -3.14755,1.40286 -0.29468,0.96166 0.0497,1.71551 0.9946,2.17719 0.86455,0.42242 3.61927,0.46103 4.59029,0.0643 z m 10.87716,-0.0182 c 1.63442,-0.82638 1.18848,-3.12019 -0.68903,-3.54414 -1.61156,-0.36391 -3.70856,-0.11448 -4.44934,0.52922 -0.86732,0.75366 -0.5556,2.57491 0.51903,3.03242 0.8538,0.36349 3.88854,0.352 4.61934,-0.0175 z m 0.37336,-9.78459 c 0.56825,-0.70634 0.52706,-1.61415 -0.0994,-2.18963 l -0.50503,-0.46399 -12.36512,-0.0543 c -6.800806,-0.0298 -12.565536,-0.006 -12.810507,0.0527 -1.192094,0.28633 -1.643074,1.83157 -0.792811,2.71649 l 0.425608,0.44296 h 12.87075 12.87076 z m 0,-7.46412 c 0.611,-0.75947 0.53303,-1.65358 -0.19656,-2.25382 l -0.60225,-0.49549 H 104.5469 92.049343 l -0.602249,0.49549 c -0.729583,0.60024 -0.807558,1.49435 -0.196556,2.25382 l 0.405695,0.50428 h 12.890667 12.89067 z m -0.0748,-7.23821 c 0.5281,-0.51635 0.64039,-1.51167 0.22956,-2.03486 -0.58044,-0.73917 -0.7563,-0.74896 -13.44801,-0.74896 -13.064918,0 -13.246807,0.0116 -13.583614,0.86982 -0.261305,0.66579 -0.113949,1.4517 0.35887,1.914 l 0.480461,0.46977 h 12.741133 12.74114 z"
       id="path1"
       inkscape:label="Icon" /></g></svg>
